:FULLY-SPECIFIED
:FORCE-ALL-JOINTS-BE-3DOF
:DEGREES
41
root -2.44557 17.0319 -24.3994 0.34685 -6.29504 1.1508
lfemur -18.6858 -4.08502 -23.2787
ltibia 26.8952 0 0
lfoot -5.09033 -2.44873 -0.0729587
ltoes -8.303 0 0
rfemur -2.32454 3.33739 19.6842
rtibia 32.9451 0 0
rfoot 6.41765 0.729215 0.738722
rtoes -5.10501 0 0
lowerback 6.06624 1.74148 -1.16986
upperback -1.08047 2.33499 1.78388
thorax -4.40326 1.19276 2.21658
lowerneck -13.6379 -3.8499 -10.6101
upperneck 22.6811 -4.26169 5.743
head 9.81155 -2.26813 3.25739
lclavicle 3.2922e-17 8.3092e-15 4.75543e-32
lhumerus -37.2746 11.8684 81.8166
lradius 22.9316 0 0
lwrist -13.9307 0 0
lhand -13.7319 24.6406 0.00526729
lfingers 7.12502 0 0
lthumb 12.3873 54.2482 0.00406202
rclavicle 3.2922e-17 8.3092e-15 4.75543e-32
rhumerus -30.7722 -12.6007 -76.692
rradius 37.5381 0 0
rwrist 2.63993 0 0
rhand -17.5466 11.0927 -0.0135961
rfingers 7.12502 0 0
rthumb 8.70783 -18.7044 -0.0126041
42
root -2.45848 17.0361 -24.1564 0.149486 -6.0768 1.54496
lfemur -17.9311 -3.90385 -23.908
ltibia 27.3756 0 0
lfoot -5.17244 -3.11533 -0.0593819
ltoes -6.30546 0 0
rfemur -3.1275 2.9211 19.1238
rtibia 34.6797 0 0
rfoot 8.16221 1.25782 0.839653
rtoes -1.17732 0 0
lowerback 6.1142 1.26604 -1.97736
upperback -1.52642 1.66635 2.17001
thorax -4.95381 0.896461 3.12799
lowerneck -11.5313 -3.30051 -11.4495
upperneck 22.0756 -3.52596 5.75287
head 9.14865 -2.02289 3.50206
lclavicle 2.27111e-15 -7.95139e-15 1.96017e-47
lhumerus -38.8624 13.3876 81.3814
lradius 23.3859 0 0
lwrist -13.7675 0 0
lhand -13.884 24.1842 0.00983872
lfingers 7.12502 0 0
lthumb 12.2406 53.7989 0.00817189
rclavicle 2.27111e-15 -7.95139e-15 1.96017e-47
rhumerus -31.8686 -11.2569 -76.4307
rradius 37.1756 0 0
rwrist 2.77886 0 0
rhand -17.451 11.319 -0.00898378
rfingers 7.12502 0 0
rthumb 8.80002 -18.4742 -0.0081452
43
root -2.4718 17.0388 -23.9129 -0.175601 -5.80304 1.83994
lfemur -17.0719 -4.16423 -24.3497
ltibia 27.9173 0 0
lfoot -5.56919 -3.8446 -0.0595643
ltoes -4.56352 0 0
rfemur -3.87008 2.43164 18.7167
rtibia 36.561 0 0
rfoot 9.45704 1.67145 0.880197
rtoes 0.377753 0 0
lowerback 6.36126 1.69529 -1.68738
upperback -0.410417 2.19894 1.39995
thorax -3.85162 1.12877 2.12761
lowerneck -15.4172 -4.18219 -10.3501
upperneck 22.6745 -4.6326 5.85312
head 10.1811 -2.36982 3.18053
lclavicle 2.98646e-14 1.19668e-14 -3.80783e-30
lhumerus -35.7908 12.1803 81.6597
lradius 23.2104 0 0
lwrist -13.5085 0 0
lhand -13.6609 24.6205 0.00686709
lfingers 7.12502 0 0
lthumb 12.4556 54.2214 0.00510118
rclavicle 2.98646e-14 1.19668e-14 -3.80783e-30
rhumerus -30.2046 -14.6256 -76.6425
rradius 36.5666 0 0
rwrist 3.57787 0 0
rhand -17.4408 11.4727 -0.00544277
rfingers 7.12502 0 0
rthumb 8.80981 -18.3197 -0.00467149
44
root -2.48246 17.0398 -23.6686 -0.494054 -5.85562 1.95594
lfemur -16.1455 -4.51257 -24.5441
ltibia 28.4519 0 0
lfoot -5.98656 -3.37457 -0.016925
ltoes -4.66344 0 0
rfemur -4.888 2.2017 18.4851
rtibia 38.868 0 0
rfoot 9.88875 1.92652 0.863603
rtoes 0.765665 0 0
lowerback 6.67421 1.66351 -1.84735
upperback -0.35299 2.14245 1.42748
thorax -3.97209 1.10342 2.23286
lowerneck -15.3875 -4.04073 -10.438
upperneck 22.6103 -4.41974 5.8961
head 10.1339 -2.27535 3.24098
lclavicle -1.64991e-14 -4.13472e-15 -6.95193e-32
lhumerus -35.786 12.5525 81.5253
lradius 23.488 0 0
lwrist -13.0314 0 0
lhand -13.5277 24.9272 -0.0014452
lfingers 7.12502 0 0
lthumb 12.584 54.5195 -0.00304354
rclavicle -1.64991e-14 -4.13472e-15 -6.95193e-32
rhumerus -30.4652 -15.1208 -76.5033
rradius 36.1727 0 0
rwrist 4.08243 0 0
rhand -17.319 11.0668 -0.00598032
rfingers 7.12502 0 0
rthumb 8.92741 -18.7219 -0.00539329
45
root -2.49337 17.0418 -23.427 -0.778177 -6.11944 2.15127
lfemur -15.209 -4.61106 -24.8107
ltibia 28.9265 0 0
lfoot -6.35011 -2.74334 0.0352771
ltoes -5.56554 0 0
rfemur -6.14037 2.14848 18.1817
rtibia 41.5515 0 0
rfoot 9.47993 1.84481 0.79091
rtoes 1.15396 0 0
lowerback 7.08325 1.64911 -2.17041
upperback -0.431389 2.092 1.50661
thorax -4.29524 1.09151 2.4895
lowerneck -15.1226 -3.93252 -10.6312
upperneck 22.4906 -4.22666 5.83412
head 10.0255 -2.21272 3.27828
lclavicle 3.84945e-14 9.22358e-15 3.91789e-31
lhumerus -36.0632 13.1097 81.4035
lradius 23.7321 0 0
lwrist -12.6689 0 0
lhand -13.789 25.198 -0.00977009
lfingers 7.12502 0 0
lthumb 12.3322 54.8074 -0.0107176
rclavicle 3.84945e-14 9.22358e-15 3.91789e-31
rhumerus -30.9181 -15.0796 -76.3544
rradius 35.7993 0 0
rwrist 4.10765 0 0
rhand -16.8731 11.1095 -0.00765654
rfingers 7.12502 0 0
rthumb 9.35772 -18.6618 -0.00722747
46
root -2.50351 17.0446 -23.1885 -1.0154 -6.26132 2.49277
lfemur -14.3221 -4.64622 -25.285
ltibia 29.3446 0 0
lfoot -6.78586 -2.70558 0.0589651
ltoes -5.49503 0 0
rfemur -7.58075 1.89108 17.7104
rtibia 44.4166 0 0
rfoot 8.88847 1.493 0.655088
rtoes 0.673777 0 0
lowerback 7.46906 1.60962 -2.55957
upperback -0.523585 1.99363 1.49871
thorax -4.62454 1.05948 2.70165
lowerneck -14.7614 -3.87314 -10.7051
upperneck 22.2954 -4.1088 5.62895
head 9.87237 -2.18961 3.23245
lclavicle -1.51093e-14 -3.53837e-15 3.54721e-32
lhumerus -36.267 13.5028 81.3203
lradius 23.8366 0 0
lwrist -12.3217 0 0
lhand -14.2316 25.4536 -0.0153757
lfingers 7.12502 0 0
lthumb 11.9056 55.0906 -0.0156452
rclavicle -1.51093e-14 -3.53837e-15 3.54721e-32
rhumerus -31.4579 -15.2841 -76.0528
rradius 35.321 0 0
rwrist 4.23315 0 0
rhand -16.3935 12.1352 -0.00506136
rfingers 7.12502 0 0
rthumb 9.82047 -17.6155 -0.00484267
